<?xml version="1.0" standalone="no"?>
<!DOCTYPE svg PUBLIC "-//W3C//DTD SVG 20010904//EN"
 "http://www.w3.org/TR/2001/REC-SVG-20010904/DTD/svg10.dtd">
<svg version="1.0" xmlns="http://www.w3.org/2000/svg"
 width="512.000000pt" height="512.000000pt" viewBox="0 0 512.000000 512.000000"
 preserveAspectRatio="xMidYMid meet">

<g transform="translate(0.000000,512.000000) scale(0.100000,-0.100000)"
fill="#e1e2e2" stroke="none">
<path d="M698 5104 c-44 -24 -58 -62 -58 -163 0 -148 45 -259 141 -345 28 -25
55 -46 59 -46 4 0 10 -138 13 -307 8 -421 37 -571 160 -818 105 -212 199 -322
527 -618 146 -131 265 -242 265 -247 0 -5 -119 -116 -265 -247 -328 -296 -422
-406 -527 -618 -123 -247 -152 -397 -160 -817 -3 -170 -9 -308 -13 -308 -4 0
-31 -21 -59 -46 -96 -86 -141 -197 -141 -345 0 -61 5 -100 15 -119 33 -64
-107 -60 1905 -60 2012 0 1872 -4 1905 60 10 19 15 58 15 119 0 148 -45 259
-141 345 -28 25 -55 46 -59 46 -4 0 -10 138 -13 308 -8 420 -37 570 -160 817
-105 212 -199 322 -527 618 -146 131 -265 242 -265 247 0 5 119 116 265 247
328 296 422 406 527 618 123 247 152 397 160 818 3 169 9 307 13 307 4 0 31
21 59 46 96 86 141 197 141 345 0 61 -5 100 -15 119 -33 64 108 60 -1907 60
-1602 -1 -1836 -3 -1860 -16z m3142 -848 c0 -124 -5 -260 -11 -303 -31 -229
-128 -431 -283 -592 -39 -40 -220 -208 -402 -372 -357 -321 -366 -333 -366
-429 0 -96 9 -108 366 -429 182 -164 363 -332 402 -372 155 -161 252 -363 283
-592 6 -43 11 -179 11 -303 l0 -224 -134 0 -134 0 -472 630 c-514 685 -496
666 -574 640 -30 -9 -100 -99 -506 -640 l-472 -630 -134 0 -134 0 0 224 c0
124 5 260 11 303 31 229 128 431 283 592 39 40 220 208 402 372 357 321 366
333 366 429 0 96 -9 108 -366 429 -182 164 -363 332 -402 372 -155 161 -252
363 -283 592 -6 43 -11 179 -11 303 l0 224 1280 0 1280 0 0 -224z"/>
<path d="M1784 3616 c-54 -24 -75 -71 -58 -133 5 -19 692 -663 768 -720 18
-14 44 -23 66 -23 22 0 48 9 66 23 17 12 195 174 397 361 318 293 367 343 373
374 9 45 -4 80 -39 106 -28 21 -34 21 -785 23 -622 2 -763 0 -788 -11z"/>
</g>
</svg>
