<svg width="868" height="797" viewBox="0 0 868 797" fill="none" xmlns="http://www.w3.org/2000/svg">
<path d="M597.979 494.6C586.388 528.829 553.475 589.039 524.845 613.574C516.196 620.983 517.482 618.802 483.449 643.387C414.962 692.859 409.994 701.532 385.752 716.262C354.843 735.038 308.649 763.106 259.906 753.803C186.91 739.869 149.57 650.023 130.748 604.741C115.145 567.188 106.871 545.226 110.05 508.402C114.124 461.193 135.964 427.776 119.709 403.782C111.618 391.835 100.667 381.975 83.5562 384.735C73.7755 386.314 55.4064 398.537 57.6142 420.621C58.8782 433.274 69.2164 444.438 77.4847 443.256C92.9394 441.048 87.4199 417.308 86.8679 410.683C96.8031 412.339 107.566 431.64 106.738 442.152C105.082 463.131 94.5953 474.162 77.4847 475.829C54.8545 478.037 33.7973 451.57 29.4645 426.694C24.7949 399.89 33.8967 364.336 80.2444 353.266C117.226 344.433 144.603 374.036 156.138 397.709C165.417 416.751 159.853 432.347 157.242 456.23C149.918 523.248 170.887 609.726 213.542 625.72C234.516 633.582 264.383 630.081 272.601 614.678C290.65 580.835 264.322 529.105 209.954 493.496" fill="#F7F7F7"/>
<path d="M615.929 43.0626H219.602C192.173 43.0626 169.937 65.3036 169.937 92.7392V446.647C169.937 474.083 192.173 496.324 219.602 496.324H615.929C643.358 496.324 665.594 474.083 665.594 446.647V92.7392C665.594 65.3036 643.358 43.0626 615.929 43.0626Z" fill="#E5E5E5"/>
<path d="M582.812 68.3812H252.72C225.29 68.3812 203.055 90.6222 203.055 118.058V377.361C203.055 404.796 225.29 427.037 252.72 427.037H582.812C610.241 427.037 632.477 404.796 632.477 377.361V118.058C632.477 90.6222 610.241 68.3812 582.812 68.3812Z" fill="#84D8FF"/>
<path d="M245.82 478.657L231.751 464.579L217.676 450.506L236.873 445.383L256.07 440.26L250.942 459.456L245.82 478.657Z" fill="#FFB100"/>
<path d="M556.069 462.553L546.095 464.8L547.553 474.925L539.577 468.526L532.573 475.974L532.6 465.749L522.411 464.916L530.42 458.561L524.718 450.076L534.681 452.378L537.761 442.628L542.171 451.854L551.709 448.182L547.249 457.38L556.069 462.553Z" fill="#FFB100"/>
<path d="M604.481 442.242L610.603 453.427L621.785 459.544L610.603 465.667L604.481 476.852L598.366 465.667L587.183 459.544L598.366 453.427L604.481 442.242Z" fill="#FFB100"/>
<path d="M397.657 182.532C397.657 224.517 378.096 259.063 354.329 259.063C330.561 259.063 311 224.517 311 182.532C311 140.547 330.561 106 354.329 106C372.493 106 388.82 126.182 395.041 156.333" fill="#F7F7F7"/>
<path d="M524.991 182.532C524.991 224.517 505.429 259.063 481.662 259.063C457.895 259.063 438.333 224.517 438.333 182.532C438.333 140.547 457.895 106 481.662 106C499.827 106 516.154 126.182 522.374 156.333" fill="#F7F7F7"/>
<path d="M361.981 182.897L398 182.668C398 224.636 378.361 259.168 354.5 259.168C330.639 259.168 311 224.636 311 182.668C311 140.701 330.639 106.168 354.5 106.168C372.737 106.168 389.128 126.342 395.373 156.48L361.981 182.897Z" fill="#444444"/>
<path d="M488.981 182.897L525 182.668C525 224.636 505.361 259.168 481.5 259.168C457.639 259.168 438 224.636 438 182.668C438 140.701 457.639 106.168 481.5 106.168C499.737 106.168 516.128 126.342 522.373 156.48L488.981 182.897Z" fill="#444444"/>
<path d="M431.013 396.397C382.446 403.828 333.896 377.355 309.582 338.98C296.617 318.52 280.831 279.338 294.183 267.485C316.901 247.317 389.842 336.562 470.202 316.344C513.243 305.518 532.258 269.87 537.54 274.386C545.908 281.541 513.282 383.809 431.013 396.397Z" fill="#F7F7F7"/>
<path d="M298.102 224.842C306.033 240.466 307.021 260.865 295.872 275.424C287.692 286.416 275.267 293.615 261.479 293.935C257.075 294.062 252.681 293.659 248.486 292.55L248.707 290.998C257.091 291.191 265.382 289.933 272.69 286.697C279.948 283.468 286.212 278.107 291.003 271.808C295.8 265.426 298.543 257.801 299.31 249.829C300.127 241.769 299.056 233.432 297.34 225.112L298.118 224.842H298.102Z" fill="#1CB0F6"/>
<path d="M319.407 391.825C346.155 407.609 370.551 420.031 402.427 420.296C372.235 423.349 342.854 409.928 319.407 391.825Z" fill="#1CB0F6"/>
<path d="M302.01 287.52C313.948 302.172 326.627 316.62 342.462 327.11C348.683 331.306 355.113 335.32 361.577 339.129C364.883 341.023 368.2 342.883 371.473 344.871L371.324 345.229C369.459 344.744 367.626 344.164 365.788 343.584C356.697 340.421 347.883 336.109 340.233 330.218C331.092 323.179 322.824 314.92 315.466 306.087C310.604 300.163 306.022 294.04 301.7 287.746L302.01 287.515V287.52Z" fill="#D2E4E8"/>
<path d="M229 663.797C229 678.585 240.985 690.573 255.77 690.573C270.555 690.573 282.54 678.585 282.54 663.797L282.54 525.776C282.54 510.988 270.555 499 255.77 499C240.985 499 229 510.988 229 525.776L229 663.797Z" fill="#E5E5E5"/>
<path d="M704.082 311.413L704.36 311.657C715.451 321.436 732.367 320.371 742.143 309.278L833.387 205.743C843.163 194.65 842.097 177.73 831.006 167.951L830.729 167.706C819.638 157.927 802.721 158.993 792.945 170.086L701.701 273.62C691.925 284.713 692.991 301.634 704.082 311.413Z" fill="#E5E5E5"/>
</svg>
