<svg width="112" height="112" viewBox="0 0 112 112" fill="none" xmlns="http://www.w3.org/2000/svg">
<path d="M107.741 56.3147C107.741 84.9728 84.4934 108.228 55.8263 108.228C27.1591 108.228 3.91187 84.9877 3.91187 56.3147C3.91187 27.6417 27.1591 4.41675 55.8263 4.41675C84.4934 4.41675 107.741 27.6567 107.741 56.3147Z" fill="#E1E2E2"/>
<mask id="mask0_93_1913" style="mask-type:luminance" maskUnits="userSpaceOnUse" x="3" y="4" width="105" height="105">
<path d="M107.741 56.3147C107.741 84.9728 84.4934 108.228 55.8263 108.228C27.1591 108.228 3.91187 84.9877 3.91187 56.3147C3.91187 27.6417 27.1591 4.41675 55.8263 4.41675C84.4934 4.41675 107.741 27.6567 107.741 56.3147Z" fill="white"/>
</mask>
<g mask="url(#mask0_93_1913)">
<mask id="mask1_93_1913" style="mask-type:luminance" maskUnits="userSpaceOnUse" x="-90" y="-59" width="286" height="302">
<path d="M195.668 -58.7504H-89.7491V242.428H195.668V-58.7504Z" fill="white"/>
</mask>
<g mask="url(#mask1_93_1913)">
<mask id="mask2_93_1913" style="mask-type:luminance" maskUnits="userSpaceOnUse" x="-90" y="-59" width="286" height="302">
<path d="M195.668 -58.7504H-89.7491V242.428H195.668V-58.7504Z" fill="white"/>
</mask>
<g mask="url(#mask2_93_1913)">
<path d="M105.635 121.691H5.56911C-1.35879 121.691 -6.97278 115.765 -6.97278 108.466V14.1933C-6.97278 6.8795 -1.35879 0.96875 5.56911 0.96875H105.635C112.563 0.96875 118.177 6.89442 118.177 14.1933V108.466C118.177 115.78 112.563 121.691 105.635 121.691Z" fill="#E5E5E5"/>
<path d="M97.2741 103.227H13.9303C7.00242 103.227 1.38843 97.3016 1.38843 90.0027V20.9249C1.38843 13.6111 7.00242 7.70044 13.9303 7.70044H97.2741C104.202 7.70044 109.816 13.6261 109.816 20.9249V90.0027C109.816 97.3165 104.202 103.227 97.2741 103.227Z" fill="#89D6F8"/>
<path d="M12.1835 116.974L8.62996 113.228L5.07642 109.481L9.92893 108.108L14.7665 106.75L13.4825 111.869L12.1835 116.974Z" fill="#FCB017"/>
<path d="M90.5255 112.69L88.0022 113.287L88.3754 115.989L86.3598 114.273L84.583 116.258L84.5979 113.541L82.0149 113.317L84.0455 111.631L82.6121 109.362L85.1205 109.974L85.8969 107.377L87.0167 109.84L89.4206 108.854L88.3008 111.317L90.5255 112.69Z" fill="#FCB017"/>
<path d="M102.739 107.272L104.292 110.257L107.114 111.884L104.292 113.511L102.739 116.497L101.201 113.511L98.379 111.884L101.201 110.257L102.739 107.272Z" fill="#FCB017"/>
</g>
<mask id="mask3_93_1913" style="mask-type:luminance" maskUnits="userSpaceOnUse" x="-90" y="-59" width="286" height="302">
<path d="M195.668 -58.7504H-89.7491V242.428H195.668V-58.7504Z" fill="white"/>
</mask>
<g mask="url(#mask3_93_1913)">
<path d="M101.097 121.751C98.1701 130.87 89.8536 146.901 82.6271 153.439C80.4472 155.409 80.7608 154.827 72.1756 161.379C54.8857 174.559 53.6315 176.872 47.5098 180.798C39.701 185.798 28.0401 193.276 15.7371 190.799C-2.68754 187.082 -12.1238 163.155 -16.8718 151.095C-20.8135 141.095 -22.9038 135.244 -22.0976 125.437C-21.0674 112.87 -15.5579 103.959 -19.6639 97.5703C-21.7094 94.3911 -24.4716 91.7641 -28.7866 92.4955C-31.2502 92.9134 -35.8937 96.1673 -35.3412 102.048C-35.0277 105.421 -32.4148 108.392 -30.3245 108.078C-26.4275 107.496 -27.8161 101.168 -27.9505 99.4062C-25.4421 99.854 -22.7247 104.989 -22.9337 107.795C-23.3518 113.377 -25.9945 116.317 -30.3245 116.765C-36.043 117.347 -41.3583 110.302 -42.4483 103.675C-43.6278 96.5404 -41.3285 87.0624 -29.6227 84.122C-20.291 81.7636 -13.378 89.6595 -10.4665 95.9583C-8.12234 101.033 -9.52585 105.183 -10.1828 111.541C-12.0342 129.393 -6.73378 152.424 4.03133 156.692C9.33177 158.782 16.8718 157.857 18.9472 153.752C23.5011 144.737 16.8569 130.96 3.13549 121.467" fill="#F7F7F7"/>
</g>
<mask id="mask4_93_1913" style="mask-type:luminance" maskUnits="userSpaceOnUse" x="-90" y="-59" width="286" height="302">
<path d="M195.668 -58.7504H-89.7491V242.428H195.668V-58.7504Z" fill="white"/>
</mask>
<g mask="url(#mask4_93_1913)">
<path d="M50.1078 36.5C50.1078 47.1955 45.1657 56 39.1635 56C33.1613 56 28.2192 47.1955 28.2192 36.5C28.2192 25.8045 33.1613 17 39.1635 17C43.7473 17 47.8682 22.1409 49.4359 29.8227" fill="#F7F7F7"/>
<path d="M82.1642 36.5C82.1642 47.1955 77.2221 56 71.2199 56C65.2177 56 60.2756 47.1955 60.2756 36.5C60.2756 25.8045 65.2177 17 71.2199 17C75.8037 17 79.9246 22.1409 81.4923 29.8227" fill="#F7F7F7"/>
</g>
<mask id="mask5_93_1913" style="mask-type:luminance" maskUnits="userSpaceOnUse" x="-90" y="-59" width="286" height="302">
<path d="M195.668 -58.7504H-89.7491V242.428H195.668V-58.7504Z" fill="white"/>
</mask>
<g mask="url(#mask5_93_1913)">
<path d="M40.8909 36.5591L50 36.5C50 47.1955 45.0327 56 39 56C32.9673 56 28 47.1955 28 36.5C28 25.8045 32.9673 17 39 17C43.6071 17 47.749 22.1409 49.3247 29.8227L40.8909 36.5591Z" fill="#454545"/>
<path d="M72.8909 36.5591L82 36.5C82 47.1955 77.0327 56 71 56C64.9673 56 60 47.1955 60 36.5C60 25.8045 64.9673 17 71 17C75.6071 17 79.749 22.1409 81.3247 29.8227L72.8909 36.5591Z" fill="#454545"/>
<path d="M58.9468 95.0627C46.6886 97.0479 34.4304 89.9879 28.2938 79.7635C25.024 74.3155 21.0374 63.8822 24.4118 60.7178C30.1452 55.3445 48.5699 79.1217 68.8608 73.7334C79.7305 70.8526 84.5233 61.3597 85.867 62.5538C87.9872 64.4643 79.7454 91.7044 58.9766 95.0478" fill="#F7F7F7"/>
<path d="M25.3823 49.374C27.3831 53.5384 27.6369 58.9715 24.815 62.8523C22.7545 65.7778 19.619 67.7033 16.1252 67.7779C15.0054 67.8077 13.9005 67.7033 12.8405 67.4047L12.9002 66.9868C15.0203 67.0316 17.1107 66.7032 18.9621 65.8375C20.7986 64.9718 22.3812 63.5538 23.5906 61.8672C24.8 60.1656 25.5018 58.1356 25.6809 56.0161C25.89 53.8668 25.6212 51.6428 25.1882 49.4337L25.3823 49.3591V49.374Z" fill="#3FACE2"/>
<path d="M30.7723 93.8538C37.5211 98.0629 43.6875 101.362 51.7352 101.436C44.1056 102.257 36.6999 98.6749 30.7723 93.8538Z" fill="#3FACE2"/>
<path d="M26.3678 66.0614C29.3838 69.9571 32.579 73.808 36.5805 76.6141C38.1482 77.7336 39.7757 78.7933 41.4031 79.8232C42.2393 80.3307 43.0754 80.8233 43.8966 81.3457L43.8518 81.4352C43.374 81.3009 42.9112 81.1516 42.4483 81.0024C40.149 80.1665 37.9243 79.0172 35.9982 77.4351C33.6839 75.5544 31.6085 73.3602 29.7422 71.0019C28.5179 69.4198 27.3533 67.7928 26.2633 66.1211L26.338 66.0614H26.3678Z" fill="#D2E4E8"/>
</g>
<mask id="mask6_93_1913" style="mask-type:luminance" maskUnits="userSpaceOnUse" x="-90" y="-59" width="286" height="302">
<path d="M195.668 -58.7504H-89.7491V242.428H195.668V-58.7504Z" fill="white"/>
</mask>
<g mask="url(#mask6_93_1913)">
</g>
</g>
</g>
<path d="M107.741 56.3147C107.741 84.9728 84.4934 108.228 55.8263 108.228C27.1591 108.228 3.91187 84.9877 3.91187 56.3147C3.91187 27.6417 27.1591 4.41675 55.8263 4.41675C84.4934 4.41675 107.741 27.6567 107.741 56.3147Z" stroke="#E1E2E2" stroke-width="7" stroke-miterlimit="10"/>
</svg>
