<svg width="114" height="115" viewBox="0 0 114 115" fill="none" xmlns="http://www.w3.org/2000/svg">
<rect x="12" y="10" width="91" height="91" rx="29" fill="#E5E5E5"/>
<path d="M73.792 50.0743L71.8642 50.9006C70.223 51.6035 68.2914 51.2355 67.0907 49.9138C66.1268 48.8519 65.1031 47.8575 64.0272 46.9305C62.6813 45.7706 62.2624 43.8606 62.922 42.2117L63.7114 40.2382C64.0577 39.3736 63.6363 38.3919 62.7717 38.0468L49.6964 32.8175C48.8318 32.4711 47.8501 32.8926 47.5051 33.7572L46.7156 35.7307C46.0561 37.3796 44.4352 38.4747 42.6602 38.3855C41.2431 38.3155 39.8157 38.3295 38.3846 38.4326C36.6045 38.5612 34.9505 37.4955 34.2477 35.8555L33.4213 33.9278C33.0546 33.0721 32.0627 32.6761 31.2071 33.0428L18.2629 38.5905C17.4073 38.9572 17.0113 39.9491 17.378 40.8048L18.2043 42.7325C18.9072 44.3738 18.5392 46.3053 17.2175 47.5061C16.1556 48.4699 15.1612 49.4936 14.2342 50.5696C13.0743 51.9154 11.1644 52.3343 9.51418 51.6748L7.5406 50.8853C6.67604 50.539 5.69434 50.9605 5.34928 51.825L0.121187 64.8978C-0.225145 65.7624 0.196311 66.7441 1.06087 67.0891L3.03445 67.8785C4.68335 68.5381 5.77838 70.159 5.68925 71.9339C5.61922 73.3511 5.63322 74.7785 5.73636 76.2096C5.86496 77.9897 4.79922 79.6437 3.15924 80.3465L1.23276 81.1729C0.377117 81.5396 -0.0188735 82.5302 0.347831 83.3871L5.89552 96.3313C6.26222 97.1869 7.25284 97.5829 8.10975 97.2162L10.0375 96.3899C11.6788 95.687 13.6103 96.055 14.811 97.3767C15.7749 98.4386 16.7986 99.433 17.8745 100.36C19.2204 101.52 19.6393 103.43 18.9798 105.08L18.1903 107.054C17.844 107.918 18.2654 108.9 19.13 109.245L32.2053 114.474C33.0699 114.821 34.0516 114.399 34.3966 113.535L35.1861 111.561C35.8456 109.912 37.4678 108.817 39.2415 108.906C40.6586 108.976 42.086 108.962 43.5172 108.859C45.2972 108.731 46.9512 109.796 47.654 111.436L48.4804 113.364C48.8471 114.22 49.8377 114.617 50.6946 114.249L63.6363 108.7C64.4919 108.333 64.8879 107.341 64.5212 106.486L63.6948 104.558C62.992 102.917 63.36 100.985 64.6816 99.7844C65.7436 98.8205 66.738 97.7968 67.6649 96.7209C68.8249 95.3751 70.7348 94.9562 72.3837 95.6157L74.3573 96.4051C75.2219 96.7515 76.2036 96.33 76.5486 95.4655L81.778 82.3901C82.1243 81.5256 81.7029 80.5439 80.8383 80.1988L78.8647 79.4094C77.2158 78.7498 76.1208 77.1277 76.2099 75.354C76.28 73.9368 76.266 72.5095 76.1628 71.0783C76.0342 69.2983 77.0999 67.6443 78.7399 66.9414L80.6677 66.1151C81.5233 65.7483 81.9193 64.7577 81.5526 63.9008L76.0049 50.9566C75.6395 50.1035 74.6476 49.7076 73.792 50.0743ZM61.5468 66.7351C64.9325 76.7406 60.4518 87.9416 51.1008 92.8527C39.2135 99.0956 24.656 93.2729 20.3536 80.5553C16.9692 70.5499 21.4486 59.3488 30.7996 54.4378C42.687 48.1936 57.2444 54.0163 61.5468 66.7351Z" fill="#FF6464"/>
<path d="M111.868 24.4508H110.287C108.941 24.4508 107.711 23.6219 107.272 22.3499C106.919 21.3275 106.505 20.3343 106.035 19.373C105.447 18.1697 105.723 16.7207 106.671 15.7747L107.804 14.6415C108.3 14.1449 108.3 13.3402 107.804 12.8436L100.297 5.33505C99.8 4.83847 98.9953 4.83847 98.4987 5.33505L97.3655 6.46827C96.4182 7.41559 94.9692 7.69189 93.7672 7.10364C92.8059 6.6338 91.8127 6.21998 90.7903 5.86728C89.5182 5.428 88.6893 4.19801 88.6893 2.85215V1.27073C88.6881 0.569157 88.1189 0 87.4173 0H76.7994C76.0979 0 75.5287 0.569157 75.5287 1.27073V2.85215C75.5287 4.19801 74.6998 5.428 73.4278 5.86728C72.4053 6.21998 71.4122 6.6338 70.4509 7.10364C69.2476 7.69189 67.7986 7.41559 66.8526 6.46827L65.7193 5.33505C65.2228 4.83847 64.418 4.83847 63.9215 5.33505L56.4129 12.8436C55.9163 13.3402 55.9163 14.1449 56.4129 14.6415L57.5461 15.7747C58.4935 16.722 58.7698 18.171 58.1815 19.373C57.7117 20.3343 57.2979 21.3275 56.9452 22.3499C56.5059 23.6219 55.2759 24.4508 53.93 24.4508H52.3486C51.647 24.4508 51.0779 25.02 51.0779 25.7216V36.3395C51.0779 37.041 51.647 37.6102 52.3486 37.6102H53.93C55.2759 37.6102 56.5059 38.4391 56.9452 39.7111C57.2979 40.7335 57.7117 41.7267 58.1815 42.688C58.7698 43.8913 58.4935 45.3403 57.5461 46.2863L56.4129 47.4195C55.9163 47.9161 55.9163 48.7208 56.4129 49.2174L63.9215 56.726C64.418 57.2225 65.2228 57.2225 65.7193 56.726L66.8526 55.5927C67.7999 54.6454 69.2489 54.3691 70.4509 54.9574C71.4122 55.4272 72.4053 55.841 73.4278 56.1937C74.6998 56.633 75.5287 57.863 75.5287 59.2089V60.7903C75.5287 61.4918 76.0979 62.061 76.7994 62.061H87.4173C88.1189 62.061 88.6881 61.4918 88.6881 60.7903V59.2089C88.6881 57.863 89.517 56.633 90.789 56.1937C91.8114 55.841 92.8046 55.4272 93.7659 54.9574C94.9692 54.3691 96.4182 54.6454 97.3642 55.5927L98.4974 56.726C98.994 57.2225 99.7987 57.2225 100.295 56.726L107.804 49.2174C108.3 48.7208 108.3 47.9161 107.804 47.4195L106.671 46.2863C105.723 45.339 105.447 43.89 106.035 42.688C106.505 41.7267 106.919 40.7335 107.272 39.7111C107.711 38.4391 108.941 37.6102 110.287 37.6102H111.868C112.57 37.6102 113.139 37.041 113.139 36.3395V25.7216C113.139 25.02 112.57 24.4508 111.868 24.4508ZM98.4338 32.3592C97.8073 40.2981 91.376 46.7294 83.437 47.3559C73.345 48.1517 64.9859 39.7926 65.7817 29.7006C66.4082 21.7617 72.8395 15.3303 80.7784 14.7039C90.8705 13.9093 99.2296 22.2684 98.4338 32.3592Z" fill="#00D2FF"/>
</svg>
