<svg width="456" height="444" viewBox="0 0 456 444" fill="none" xmlns="http://www.w3.org/2000/svg">
<mask id="mask0_338_306" style="mask-type:luminance" maskUnits="userSpaceOnUse" x="0" y="0" width="456" height="444">
<path d="M371.7 0H83.4701C37.3709 0 0 37.3709 0 83.4701V360.53C0 406.629 37.3709 444 83.4701 444H371.7C417.799 444 455.17 406.629 455.17 360.53V83.4701C455.17 37.3709 417.799 0 371.7 0Z" fill="white"/>
</mask>
<g mask="url(#mask0_338_306)">
<path d="M671.25 -66.6396H-212.91V464.88H671.25V-66.6396Z" fill="url(#paint0_linear_338_306)"/>
<path d="M229.17 464.88C326.08 464.88 404.64 384.278 404.64 284.85C404.64 185.423 326.08 104.82 229.17 104.82C132.261 104.82 53.7002 185.423 53.7002 284.85C53.7002 384.278 132.261 464.88 229.17 464.88Z" fill="url(#paint1_linear_338_306)"/>
<mask id="mask1_338_306" style="mask-type:luminance" maskUnits="userSpaceOnUse" x="-346" y="277" width="1122" height="514">
<path d="M724.37 285.46C663.66 276.92 573.34 271.96 467.94 297.71C443.11 303.78 434.36 307.41 417.53 312.06C275.92 351.16 170.68 293.71 53.1399 280.28C-103.13 262.42 -305.53 319.58 -340.25 427.48C-371.17 523.58 -262.17 638.42 -249.15 651.83C-49.54 857.36 374.35 822.79 603.92 622.42C675.17 560.24 807.55 412.38 767.93 327.16C758.22 306.28 740.18 293.47 724.38 285.45L724.37 285.46Z" fill="white"/>
</mask>
<g mask="url(#mask1_338_306)">
<path d="M671.25 -66.6401H-212.91V464.88H671.25V-66.6401Z" fill="url(#paint2_linear_338_306)"/>
</g>
<path d="M52.3098 51.8906H76.3098C106.71 51.8906 131.36 77.1806 131.36 108.371V146.541C131.36 177.731 106.71 203.021 76.3098 203.021H52.3098C21.9098 203.021 -2.74023 177.731 -2.74023 146.541V108.371C-2.74023 77.1806 21.9098 51.8906 52.3098 51.8906Z" fill="#E1B4A1"/>
<path d="M-15.8802 71.3804H10.3998C31.5698 71.3804 48.7198 88.9804 48.7198 110.7V144.2C48.7198 165.92 31.5598 183.52 10.3998 183.52H-15.8802C-37.0502 183.52 -54.2002 165.92 -54.2002 144.2V110.7C-54.2002 88.9804 -37.0402 71.3804 -15.8802 71.3804Z" fill="#E1BEAD"/>
<path d="M-51.6104 111.48H109.46C133.85 111.48 153.63 131.77 153.63 156.8V164.32C153.63 189.35 133.85 209.64 109.46 209.64H-51.6104C-76.0004 209.64 -95.7803 189.35 -95.7803 164.32V156.8C-95.7803 131.77 -76.0004 111.48 -51.6104 111.48Z" fill="#E5C2B1"/>
<path d="M346.76 159.51H496.17C510.78 159.51 522.62 171.66 522.62 186.64V232.27C522.62 247.26 510.78 259.4 496.17 259.4H346.76C332.15 259.4 320.31 247.25 320.31 232.27V186.64C320.31 171.65 332.15 159.51 346.76 159.51Z" fill="#E1B4A1"/>
<path d="M469.04 76.2705H490.689C533.999 76.2705 569.119 112.291 569.119 156.731V178.951C569.119 223.391 534.009 259.411 490.689 259.411H469.04C425.73 259.411 390.609 223.391 390.609 178.951V156.731C390.609 112.291 425.72 76.2705 469.04 76.2705Z" fill="#E5C2B1"/>
<path d="M136.09 -8.13965H140.59C146.3 -8.13965 150.93 -3.38967 150.93 2.46033V9.14026C150.93 15.0003 146.3 19.7402 140.59 19.7402H136.09C130.38 19.7402 125.75 14.9903 125.75 9.14026V2.46033C125.75 -3.39967 130.38 -8.13965 136.09 -8.13965Z" fill="#B68C93"/>
<path d="M181.95 -15.6396C193.49 -15.6396 202.85 -6.03971 202.85 5.80029C202.85 17.6403 193.49 27.2402 181.95 27.2402C170.41 27.2402 161.05 17.6403 161.05 5.80029C161.05 -6.03971 170.41 -15.6396 181.95 -15.6396Z" fill="#BE8E9C"/>
<path d="M159.24 -22.5396C168.98 -22.5396 176.88 -14.4396 176.88 -4.43958V4.98047C176.88 14.9805 168.98 23.0804 159.24 23.0804C149.5 23.0804 141.6 14.9805 141.6 4.98047V-4.43958C141.6 -14.4396 149.5 -22.5396 159.24 -22.5396Z" fill="#B5919B"/>
<path d="M130.26 7.21045H194.53C202.36 7.21045 208.71 13.7204 208.71 21.7604C208.71 29.7904 202.36 36.3104 194.53 36.3104H130.26C122.43 36.3104 116.08 29.8004 116.08 21.7604C116.08 13.7304 122.43 7.21045 130.26 7.21045Z" fill="#AF92A2"/>
</g>
<g opacity="0.32">
<path d="M289.81 101.54H256.79C259.19 104.79 260.48 108.75 260.48 112.82V135.38C260.45 145.75 252.26 154.15 242.15 154.18H176.18C166.07 154.15 157.88 145.75 157.85 135.38V112.82C157.85 108.75 159.15 104.79 161.54 101.54H128.52C108.3 101.6 91.9301 118.4 91.8701 139.14V342.2C91.9301 362.94 108.3 379.74 128.52 379.8H289.79C310.01 379.74 326.38 362.94 326.44 342.2V139.14C326.38 118.4 310.01 101.6 289.79 101.54H289.81Z" fill="black"/>
<path d="M267.82 214.35H209.181C205.131 214.35 201.851 210.98 201.851 206.83C201.851 202.68 205.131 199.31 209.181 199.31H267.82C271.87 199.31 275.151 202.68 275.151 206.83C275.151 210.98 271.87 214.35 267.82 214.35Z" fill="black"/>
<path d="M165.19 221.87C164.05 221.87 162.93 221.6 161.91 221.08L147.25 213.56C143.63 211.7 142.16 207.18 143.97 203.47C145.78 199.75 150.18 198.25 153.81 200.11L162.68 204.66L173.75 187.62C176.02 184.18 180.58 183.28 183.93 185.6C187.25 187.91 188.15 192.52 185.95 195.96L171.29 218.52C169.93 220.61 167.64 221.87 165.19 221.87Z" fill="black"/>
<path d="M267.82 266.99H209.181C205.131 266.99 201.851 263.62 201.851 259.47C201.851 255.32 205.131 251.95 209.181 251.95H267.82C271.87 251.95 275.151 255.32 275.151 259.47C275.151 263.62 271.87 266.99 267.82 266.99Z" fill="black"/>
<path d="M165.19 274.51C164.05 274.51 162.93 274.24 161.91 273.72L147.25 266.2C143.63 264.34 142.16 259.82 143.97 256.11C145.78 252.39 150.18 250.89 153.81 252.75L162.68 257.3L173.75 240.26C176.02 236.82 180.58 235.92 183.93 238.24C187.25 240.55 188.15 245.16 185.95 248.6L171.29 271.16C169.93 273.25 167.64 274.51 165.19 274.51Z" fill="black"/>
<path d="M267.82 319.641H209.181C205.131 319.641 201.851 316.27 201.851 312.12C201.851 307.97 205.131 304.601 209.181 304.601H267.82C271.87 304.601 275.151 307.97 275.151 312.12C275.151 316.27 271.87 319.641 267.82 319.641Z" fill="black"/>
<path d="M165.19 327.16C164.05 327.16 162.93 326.89 161.91 326.37L147.25 318.85C143.63 316.99 142.16 312.47 143.97 308.76C145.78 305.04 150.18 303.54 153.81 305.4L162.68 309.95L173.75 292.91C176.02 289.47 180.58 288.57 183.93 290.89C187.25 293.2 188.15 297.81 185.95 301.25L171.29 323.81C169.93 325.9 167.64 327.16 165.19 327.16Z" fill="black"/>
<path d="M242.16 94.02H229.89C225.86 82.28 213.32 76.12 201.88 80.26C195.61 82.53 190.68 87.59 188.47 94.02H176.2C166.09 94.05 157.9 102.45 157.87 112.82V135.38C157.9 145.75 166.09 154.15 176.2 154.18H242.17C252.28 154.15 260.47 145.75 260.5 135.38V112.82C260.47 102.45 252.28 94.05 242.17 94.02H242.16ZM209.17 109.06C205.12 109.06 201.84 105.69 201.84 101.54C201.84 97.39 205.12 94.02 209.17 94.02C213.22 94.02 216.5 97.39 216.5 101.54C216.5 105.69 213.22 109.06 209.17 109.06Z" fill="black"/>
</g>
<path d="M311.19 86.4902H278.17C280.57 89.7402 281.86 93.7003 281.86 97.7703V120.33C281.83 130.7 273.64 139.1 263.53 139.13H197.56C187.45 139.1 179.26 130.7 179.23 120.33V97.7703C179.23 93.7003 180.53 89.7402 182.92 86.4902H149.9C129.68 86.5502 113.31 103.35 113.25 124.09V327.15C113.31 347.89 129.68 364.69 149.9 364.75H311.17C331.39 364.69 347.76 347.89 347.82 327.15V124.09C347.76 103.35 331.39 86.5502 311.17 86.4902H311.19Z" fill="#DDE5E8"/>
<path d="M289.2 199.3H230.56C226.51 199.3 223.23 195.93 223.23 191.78C223.23 187.63 226.51 184.26 230.56 184.26H289.2C293.25 184.26 296.531 187.63 296.531 191.78C296.531 195.93 293.25 199.3 289.2 199.3Z" fill="#AFC3C9"/>
<path d="M186.57 206.82C185.43 206.82 184.31 206.55 183.29 206.03L168.63 198.51C165.01 196.65 163.54 192.13 165.35 188.42C167.16 184.7 171.56 183.2 175.19 185.06L184.06 189.61L195.13 172.57C197.4 169.13 201.96 168.23 205.31 170.55C208.63 172.86 209.53 177.47 207.33 180.91L192.67 203.47C191.31 205.56 189.02 206.82 186.57 206.82Z" fill="#00A8E7"/>
<path d="M289.2 251.94H230.56C226.51 251.94 223.23 248.57 223.23 244.42C223.23 240.27 226.51 236.9 230.56 236.9H289.2C293.25 236.9 296.531 240.27 296.531 244.42C296.531 248.57 293.25 251.94 289.2 251.94Z" fill="#AFC3C9"/>
<path d="M186.57 259.46C185.43 259.46 184.31 259.19 183.29 258.67L168.63 251.15C165.01 249.29 163.54 244.77 165.35 241.06C167.16 237.34 171.56 235.84 175.19 237.7L184.06 242.25L195.13 225.21C197.4 221.77 201.96 220.87 205.31 223.19C208.63 225.5 209.53 230.11 207.33 233.55L192.67 256.11C191.31 258.2 189.02 259.46 186.57 259.46Z" fill="#E40087"/>
<path d="M289.2 304.59H230.56C226.51 304.59 223.23 301.22 223.23 297.07C223.23 292.92 226.51 289.55 230.56 289.55H289.2C293.25 289.55 296.531 292.92 296.531 297.07C296.531 301.22 293.25 304.59 289.2 304.59Z" fill="#AFC3C9"/>
<path d="M186.57 312.11C185.43 312.11 184.31 311.84 183.29 311.32L168.63 303.8C165.01 301.94 163.54 297.42 165.35 293.71C167.16 289.99 171.56 288.49 175.19 290.35L184.06 294.9L195.13 277.86C197.4 274.42 201.96 273.52 205.31 275.84C208.63 278.15 209.53 282.76 207.33 286.2L192.67 308.76C191.31 310.85 189.02 312.11 186.57 312.11Z" fill="#FEE900"/>
<path d="M263.55 78.9702H251.28C247.25 67.2302 234.71 61.0702 223.27 65.2102C217 67.4802 212.07 72.5402 209.86 78.9702H197.59C187.48 79.0002 179.29 87.4001 179.26 97.7701V120.33C179.29 130.7 187.48 139.1 197.59 139.13H263.56C273.67 139.1 281.86 130.7 281.89 120.33V97.7701C281.86 87.4001 273.67 79.0002 263.56 78.9702H263.55ZM230.56 94.0101C226.51 94.0101 223.23 90.6401 223.23 86.4901C223.23 82.3401 226.51 78.9702 230.56 78.9702C234.61 78.9702 237.89 82.3401 237.89 86.4901C237.89 90.6401 234.61 94.0101 230.56 94.0101Z" fill="#9BBDC6"/>
<defs>
<linearGradient id="paint0_linear_338_306" x1="229.17" y1="464.88" x2="229.17" y2="-66.6396" gradientUnits="userSpaceOnUse">
<stop stop-color="#FFC709"/>
<stop offset="0.45" stop-color="#D97E32"/>
<stop offset="0.5" stop-color="#E1763B"/>
<stop offset="0.57" stop-color="#F2684F"/>
<stop offset="0.58" stop-color="#EC6853"/>
<stop offset="0.63" stop-color="#CA686D"/>
<stop offset="0.68" stop-color="#AF6882"/>
<stop offset="0.74" stop-color="#996893"/>
<stop offset="0.81" stop-color="#8A689E"/>
<stop offset="0.89" stop-color="#8168A5"/>
<stop offset="1" stop-color="#7F68A8"/>
</linearGradient>
<linearGradient id="paint1_linear_338_306" x1="229.17" y1="464.88" x2="229.17" y2="104.82" gradientUnits="userSpaceOnUse">
<stop offset="0.28" stop-color="#EF3D4C"/>
<stop offset="0.37" stop-color="#F25C46"/>
<stop offset="0.52" stop-color="#F7883F"/>
<stop offset="0.66" stop-color="#FBA939"/>
<stop offset="0.77" stop-color="#FEBC36"/>
<stop offset="0.85" stop-color="#FFC435"/>
</linearGradient>
<linearGradient id="paint2_linear_338_306" x1="-196.36" y1="199.12" x2="687.8" y2="199.12" gradientUnits="userSpaceOnUse">
<stop offset="0.27" stop-color="#25263A"/>
<stop offset="1" stop-color="#16171D"/>
</linearGradient>
</defs>
</svg>
